<svg xmlns="http://www.w3.org/2000/svg" width="64" height="64" viewBox="0 0 64 64">
<defs>
<linearGradient id="pb" x1="0" y1="-28" x2="0" y2="0" gradientUnits="userSpaceOnUse">
<stop offset="0" stop-color="#EAF2FF"/><stop offset=".35" stop-color="#4FB3FF"/><stop offset="1" stop-color="#0A4DFF"/>
</linearGradient>
<radialGradient id="pg" cx="32" cy="32" r="32" gradientUnits="userSpaceOnUse">
<stop offset="0" stop-color="#1E90FF" stop-opacity=".55"/><stop offset="1" stop-color="#1E90FF" stop-opacity="0"/>
</radialGradient>
<filter id="pf" x="-50%" y="-50%" width="200%" height="200%"><feGaussianBlur stdDeviation="1.6" result="b"/><feMerge><feMergeNode in="b"/><feMergeNode in="SourceGraphic"/></feMerge></filter>
</defs>
<rect width="64" height="64" rx="14.08" fill="#05070D"/>
<circle cx="32" cy="32" r="30" fill="url(#pg)"/>
<g transform="translate(32 32) scale(1)" filter="url(#pf)">
<path d="M1.5 -5.5C8 -7 14.5 -12 15.5 -19.5C16.5 -26 10.5 -30 4.5 -29C-1 -28 -3.5 -22.5 -3.5 -16.5C-3.5 -11.5 -2.5 -8 -1.5 -5.5Z" transform="rotate(0)" fill="url(#pb)"/><path d="M1.5 -5.5C8 -7 14.5 -12 15.5 -19.5C16.5 -26 10.5 -30 4.5 -29C-1 -28 -3.5 -22.5 -3.5 -16.5C-3.5 -11.5 -2.5 -8 -1.5 -5.5Z" transform="rotate(120)" fill="url(#pb)"/><path d="M1.5 -5.5C8 -7 14.5 -12 15.5 -19.5C16.5 -26 10.5 -30 4.5 -29C-1 -28 -3.5 -22.5 -3.5 -16.5C-3.5 -11.5 -2.5 -8 -1.5 -5.5Z" transform="rotate(240)" fill="url(#pb)"/>
<circle r="6.2" fill="#EAF2FF"/><circle r="2.6" fill="#0A4DFF"/>
</g>
</svg>